<svg width="32" height="32" viewBox="0 0 72 72" fill="none" xmlns="http://www.w3.org/2000/svg">
    <rect width="72" height="72" fill="#0a66c2"/>
    <path d="M22.46 12h-20.92v47.26h20.92v-47.26zm-10.46-10.46c-5.76 0-10.46 4.7-10.46 10.46s4.7 10.46 10.46 10.46 10.46-4.7 10.46-10.46-4.7-10.46-10.46-10.46zm47.26 26.38c0-13.55-2.92-23.92-18.73-23.92-7.61 0-12.7 4.16-14.81 8.12h-0.21v-6.86h-17.79v47.26h18.54v-23.4c0-7.81 1.48-15.37 11.17-15.37s9.85 8.95 9.85 15.86v22.91h18.54v-24.6h0.44z" fill="white"/>
</svg>
