<svg width="32" height="32" viewBox="0 0 72 72" fill="none" xmlns="http://www.w3.org/2000/svg">
  <rect width="72" height="72" rx="8" fill="#0A66C2"/>
  <path d="M22.46 59.26V29.46H12V59.26H22.46ZM17.23 25.24C20.37 25.24 22.88 22.73 22.88 19.59C22.88 16.45 20.37 13.94 17.23 13.94C14.09 13.94 11.58 16.45 11.58 19.59C11.58 22.73 14.09 25.24 17.23 25.24Z" fill="white"/>
  <path d="M29.15 59.26H39.61V43.66C39.61 39.5 40.47 35.47 45.9 35.47C51.25 35.47 51.33 40.36 51.33 43.95V59.26H61.79V42.01C61.79 33.08 59.91 26.11 49.45 26.11C44.36 26.11 41.11 28.85 39.82 31.46H39.61V29.46H29.15V59.26Z" fill="white"/>
</svg>
